GSerif01-TextRegular02.ufo
<glyph name="four" format="1">
  <advance width="615"/>
  <unicode hex="0034"/>
  <outline>
    <contour>
      <point x="250" y="58" type="line"/>
      <point x="250" y="0" type="line"/>
      <point x="587" y="0" type="line"/>
      <point x="587" y="58" type="line"/>
      <point x="470" y="58" type="line"/>
      <point x="470" y="58" type="line"/>
      <point x="368" y="58" type="line"/>
      <point x="368" y="58" type="line"/>
    </contour>
    <contour>
      <point x="368" y="710" type="line"/>
      <point x="368" y="0" type="line"/>
      <point x="470" y="0" type="line"/>
      <point x="470" y="710" type="line"/>
    </contour>
    <contour>
      <point x="28" y="200" type="line"/>
      <point x="597" y="200" type="line"/>
      <point x="597" y="257" type="line"/>
      <point x="61" y="257" type="line"/>
      <point x="69" y="220" type="line"/>
      <point x="398" y="664" type="line"/>
      <point x="429" y="710" type="line"/>
      <point x="360" y="710" type="line"/>
      <point x="28" y="256" type="line"/>
    </contour>
  </outline>
</glyph>
<glyph name="E" format="1">
  <advance width="651"/>
  <unicode hex="0045"/>
  <outline>
    <contour>
      <point x="141" y="0" type="line"/>
      <point x="246" y="0" type="line"/>
      <point x="246" y="710" type="line"/>
      <point x="141" y="710" type="line"/>
    </contour>
    <contour>
      <point x="211" y="389" type="line"/>
      <point x="211" y="338" type="line"/>
      <point x="459" y="338" type="line"/>
      <point x="459" y="389" type="line"/>
    </contour>
    <contour>
      <point x="562" y="710" type="line"/>
      <point x="49" y="710" type="line"/>
      <point x="49" y="665" type="line"/>
      <point x="58" y="665" type="line" smooth="yes"/>
      <point x="104" y="665"/>
      <point x="141" y="658"/>
      <point x="141" y="629" type="curve"/>
      <point x="198" y="658" type="line"/>
      <point x="370" y="658" type="line" smooth="yes"/>
      <point x="457" y="658"/>
      <point x="492" y="649"/>
      <point x="498" y="612" type="curve" smooth="yes"/>
      <point x="511" y="517" type="line"/>
      <point x="562" y="517" type="line"/>
    </contour>
    <contour>
      <point x="590" y="217" type="line"/>
      <point x="537" y="217" type="line"/>
      <point x="525" y="99" type="line" smooth="yes"/>
      <point x="520" y="61"/>
      <point x="484" y="52"/>
      <point x="396" y="52" type="curve" smooth="yes"/>
      <point x="197" y="52" type="line"/>
      <point x="141" y="80" type="line"/>
      <point x="141" y="51"/>
      <point x="105" y="44"/>
      <point x="58" y="44" type="curve" smooth="yes"/>
      <point x="49" y="44" type="line"/>
      <point x="49" y="0" type="line"/>
      <point x="590" y="0" type="line"/>
    </contour>
  </outline>
</glyph>
<glyph name="V" format="1">
  <advance width="683"/>
  <unicode hex="0056"/>
  <outline>
    <contour>
      <point x="622" y="710" type="line"/>
      <point x="565" y="710" type="line"/>
      <point x="338" y="0" type="line"/>
      <point x="395" y="0" type="line"/>
    </contour>
    <contour>
      <point x="161" y="710" type="line"/>
      <point x="59" y="710" type="line"/>
      <point x="290" y="0" type="line"/>
      <point x="372" y="0" type="line"/>
      <point x="374" y="40" type="line"/>
    </contour>
    <contour>
      <point x="670" y="710" type="line"/>
      <point x="449" y="710" type="line"/>
      <point x="449" y="666" type="line"/>
      <point x="465" y="666" type="line" smooth="yes"/>
      <point x="506" y="666"/>
      <point x="545" y="658"/>
      <point x="545" y="647" type="curve"/>
      <point x="593" y="618" type="line"/>
      <point x="606" y="656"/>
      <point x="628" y="666"/>
      <point x="665" y="666" type="curve"/>
      <point x="670" y="666" type="line"/>
    </contour>
    <contour>
      <point x="14" y="710" type="line"/>
      <point x="14" y="666" type="line"/>
      <point x="18" y="666" type="line"/>
      <point x="53" y="666"/>
      <point x="74" y="663"/>
      <point x="85" y="631" type="curve"/>
      <point x="178" y="655" type="line"/>
      <point x="178" y="662"/>
      <point x="224" y="666"/>
      <point x="261" y="666" type="curve" smooth="yes"/>
      <point x="277" y="666" type="line"/>
      <point x="277" y="710" type="line"/>
    </contour>
  </outline>
</glyph>
<glyph name="Y" format="1">
  <advance width="681"/>
  <unicode hex="0059"/>
  <outline>
    <contour>
      <point x="291" y="0" type="line"/>
      <point x="397" y="0" type="line"/>
      <point x="397" y="322" type="line"/>
      <point x="291" y="321" type="line"/>
    </contour>
    <contour>
      <point x="624" y="703" type="line"/>
      <point x="565" y="710" type="line"/>
      <point x="346" y="314" type="line"/>
      <point x="380" y="331" type="line"/>
      <point x="155" y="710" type="line"/>
      <point x="53" y="704" type="line"/>
      <point x="309" y="272" type="line"/>
      <point x="379" y="267" type="line"/>
    </contour>
    <contour>
      <point x="664" y="710" type="line"/>
      <point x="433" y="710" type="line"/>
      <point x="433" y="666" type="line"/>
      <point x="450" y="666" type="line" smooth="yes"/>
      <point x="491" y="666"/>
      <point x="529" y="658"/>
      <point x="529" y="646" type="curve"/>
      <point x="574" y="615" type="line"/>
      <point x="598" y="656"/>
      <point x="624" y="666"/>
      <point x="658" y="666" type="curve" smooth="yes"/>
      <point x="664" y="666" type="line"/>
    </contour>
    <contour>
      <point x="17" y="710" type="line"/>
      <point x="17" y="666" type="line"/>
      <point x="22" y="666" type="line" smooth="yes"/>
      <point x="56" y="666"/>
      <point x="78" y="663"/>
      <point x="96" y="632" type="curve"/>
      <point x="188" y="655" type="line"/>
      <point x="188" y="662"/>
      <point x="233" y="666"/>
      <point x="268" y="666" type="curve" smooth="yes"/>
      <point x="283" y="666" type="line"/>
      <point x="283" y="710" type="line"/>
    </contour>
    <contour>
      <point x="194" y="0" type="line"/>
      <point x="494" y="0" type="line"/>
      <point x="494" y="44" type="line"/>
      <point x="479" y="44" type="line" smooth="yes"/>
      <point x="433" y="44"/>
      <point x="397" y="51"/>
      <point x="397" y="80" type="curve"/>
      <point x="291" y="80" type="line"/>
      <point x="291" y="51"/>
      <point x="255" y="44"/>
      <point x="209" y="44" type="curve" smooth="yes"/>
      <point x="194" y="44" type="line"/>
    </contour>
  </outline>
</glyph>
<glyph name="a" format="1">
  <advance width="574"/>
  <unicode hex="0061"/>
  <outline>
    <contour>
      <point x="409" y="320" type="line"/>
      <point x="175" y="295"/>
      <point x="53" y="244"/>
      <point x="53" y="131" type="curve" smooth="yes"/>
      <point x="53" y="42"/>
      <point x="127" y="-11"/>
      <point x="219" y="-11" type="curve" smooth="yes"/>
      <point x="305" y="-11"/>
      <point x="370" y="37"/>
      <point x="400" y="111" type="curve"/>
      <point x="436" y="159"/>
      <point x="391" y="142"/>
      <point x="383" y="141" type="curve"/>
      <point x="357" y="84"/>
      <point x="308" y="42"/>
      <point x="248" y="42" type="curve" smooth="yes"/>
      <point x="193" y="42"/>
      <point x="157" y="75"/>
      <point x="157" y="132" type="curve" smooth="yes"/>
      <point x="157" y="211"/>
      <point x="233" y="255"/>
      <point x="405" y="272" type="curve"/>
    </contour>
    <contour>
      <point x="384" y="0" type="line"/>
      <point x="555" y="0" type="line"/>
      <point x="555" y="42" type="line"/>
      <point x="555" y="42" type="line"/>
      <point x="509" y="42"/>
      <point x="473" y="49"/>
      <point x="473" y="78" type="curve" smooth="yes"/>
      <point x="473" y="387" type="line" smooth="yes"/>
      <point x="473" y="510"/>
      <point x="375" y="550"/>
      <point x="279" y="550" type="curve" smooth="yes"/>
      <point x="185" y="550"/>
      <point x="114" y="509"/>
      <point x="85" y="469" type="curve"/>
      <point x="85" y="382" type="line"/>
      <point x="181" y="382" type="line"/>
      <point x="181" y="486" type="line"/>
      <point x="156" y="486"/>
      <point x="137" y="462"/>
      <point x="141" y="414" type="curve"/>
      <point x="165" y="463"/>
      <point x="204" y="498"/>
      <point x="278" y="498" type="curve" smooth="yes"/>
      <point x="337" y="498"/>
      <point x="375" y="471"/>
      <point x="375" y="384" type="curve" smooth="yes"/>
      <point x="375" y="104" type="line"/>
      <point x="384" y="103" type="line"/>
    </contour>
  </outline>
</glyph>
<glyph name="e" format="1">
  <advance width="582"/>
  <unicode hex="0065"/>
  <outline>
    <contour>
      <point x="150" y="265" type="curve" smooth="yes"/>
      <point x="150" y="410"/>
      <point x="218" y="497"/>
      <point x="302" y="497" type="curve"/>
      <point x="391" y="497"/>
      <point x="432" y="428"/>
      <point x="435" y="285" type="curve"/>
      <point x="468" y="305" type="line"/>
      <point x="115" y="305" type="line"/>
      <point x="116" y="253" type="line"/>
      <point x="540" y="253" type="line"/>
      <point x="539" y="449"/>
      <point x="455" y="550"/>
      <point x="302" y="550" type="curve"/>
      <point x="161" y="550"/>
      <point x="48" y="436"/>
      <point x="48" y="267" type="curve" smooth="yes"/>
      <point x="48" y="95"/>
      <point x="167" y="-12"/>
      <point x="321" y="-12" type="curve" smooth="yes"/>
      <point x="427" y="-12"/>
      <point x="499" y="38"/>
      <point x="537" y="107" type="curve"/>
      <point x="491" y="140" type="line"/>
      <point x="461" y="92"/>
      <point x="414" y="41"/>
      <point x="327" y="41" type="curve" smooth="yes"/>
      <point x="225" y="41"/>
      <point x="150" y="122"/>
    </contour>
  </outline>
</glyph>
<glyph name="f" format="1">
  <advance width="414"/>
  <unicode hex="0066"/>
  <outline>
    <contour>
      <point x="42" y="540" type="line"/>
      <point x="42" y="491" type="line"/>
      <point x="397" y="491" type="line"/>
      <point x="397" y="540" type="line"/>
    </contour>
    <contour>
      <point x="393" y="624" type="line"/>
      <point x="481" y="624" type="line"/>
      <point x="481" y="704" type="line"/>
      <point x="459" y="734"/>
      <point x="412" y="762"/>
      <point x="337" y="762" type="curve" smooth="yes"/>
      <point x="227" y="762"/>
      <point x="144" y="697"/>
      <point x="144" y="577" type="curve" smooth="yes"/>
      <point x="144" y="0" type="line"/>
      <point x="244" y="0" type="line"/>
      <point x="244" y="582" type="line" smooth="yes"/>
      <point x="244" y="672"/>
      <point x="274" y="711"/>
      <point x="338" y="711" type="curve" smooth="yes"/>
      <point x="378" y="711"/>
      <point x="405" y="696"/>
      <point x="422" y="664" type="curve"/>
      <point x="440" y="680"/>
      <point x="421" y="707"/>
      <point x="393" y="707" type="curve"/>
    </contour>
    <contour>
      <point x="42" y="0" type="line"/>
      <point x="355" y="0" type="line"/>
      <point x="355" y="42" type="line"/>
      <point x="343" y="42" type="line" smooth="yes"/>
      <point x="287" y="42"/>
      <point x="244" y="46"/>
      <point x="244" y="58" type="curve"/>
      <point x="144" y="78" type="line"/>
      <point x="144" y="49"/>
      <point x="108" y="42"/>
      <point x="52" y="42" type="curve"/>
      <point x="42" y="42" type="line"/>
    </contour>
  </outline>
</glyph>
<glyph name="i" format="1">
  <advance width="338"/>
  <unicode hex="0069"/>
  <outline>
    <contour>
      <point x="172" y="644" type="curve" smooth="yes"/>
      <point x="211" y="644"/>
      <point x="239" y="668"/>
      <point x="239" y="708" type="curve" smooth="yes"/>
      <point x="239" y="746"/>
      <point x="211" y="771"/>
      <point x="172" y="771" type="curve" smooth="yes"/>
      <point x="134" y="771"/>
      <point x="106" y="746"/>
      <point x="106" y="708" type="curve" smooth="yes"/>
      <point x="106" y="668"/>
      <point x="134" y="644"/>
    </contour>
    <contour>
      <point x="43" y="540" type="line"/>
      <point x="43" y="495" type="line"/>
      <point x="53" y="493" type="line" smooth="yes"/>
      <point x="103" y="484"/>
      <point x="127" y="477"/>
      <point x="127" y="448" type="curve" smooth="yes"/>
      <point x="127" y="0" type="line"/>
      <point x="226" y="0" type="line"/>
      <point x="226" y="540" type="line"/>
    </contour>
    <contour>
      <point x="309" y="0" type="line"/>
      <point x="309" y="42" type="line"/>
      <point x="309" y="42" type="line"/>
      <point x="262" y="42"/>
      <point x="226" y="49"/>
      <point x="226" y="78" type="curve"/>
      <point x="127" y="78" type="line"/>
      <point x="127" y="49"/>
      <point x="91" y="42"/>
      <point x="44" y="42" type="curve"/>
      <point x="43" y="42" type="line"/>
      <point x="43" y="0" type="line"/>
    </contour>
  </outline>
</glyph>
<glyph name="k" format="1">
  <advance width="654"/>
  <unicode hex="006B"/>
  <outline>
    <contour>
      <point x="325" y="325" type="line"/>
      <point x="314" y="283" type="line"/>
      <point x="557" y="511" type="line"/>
      <point x="541" y="537" type="line"/>
      <point x="507" y="536" type="line"/>
      <point x="244" y="289" type="line"/>
      <point x="244" y="283" type="line"/>
      <point x="497" y="0" type="line"/>
      <point x="577" y="0" type="line"/>
      <point x="585" y="37" type="line"/>
    </contour>
    <contour>
      <point x="43" y="0" type="line"/>
      <point x="299" y="0" type="line"/>
      <point x="299" y="42" type="line"/>
      <point x="299" y="42" type="line"/>
      <point x="270" y="42"/>
      <point x="226" y="46"/>
      <point x="226" y="58" type="curve"/>
      <point x="127" y="78" type="line"/>
      <point x="127" y="49"/>
      <point x="91" y="42"/>
      <point x="44" y="42" type="curve"/>
      <point x="43" y="42" type="line"/>
    </contour>
    <contour>
      <point x="641" y="0" type="line"/>
      <point x="641" y="42" type="line"/>
      <point x="640" y="42" type="line"/>
      <point x="606" y="42"/>
      <point x="574" y="50"/>
      <point x="547" y="79" type="curve"/>
      <point x="449" y="53" type="line"/>
      <point x="449" y="46"/>
      <point x="403" y="42"/>
      <point x="379" y="42" type="curve"/>
      <point x="379" y="42" type="line"/>
      <point x="379" y="0" type="line"/>
    </contour>
    <contour>
      <point x="606" y="540" type="line"/>
      <point x="368" y="540" type="line"/>
      <point x="368" y="498" type="line"/>
      <point x="368" y="498" type="line"/>
      <point x="399" y="498"/>
      <point x="447" y="494"/>
      <point x="447" y="479" type="curve"/>
      <point x="491" y="449" type="line"/>
      <point x="527" y="484"/>
      <point x="567" y="498"/>
      <point x="605" y="498" type="curve"/>
      <point x="606" y="498" type="line"/>
    </contour>
    <contour>
      <point x="127" y="0" type="line"/>
      <point x="226" y="0" type="line"/>
      <point x="226" y="750" type="line"/>
      <point x="43" y="750" type="line"/>
      <point x="43" y="705" type="line"/>
      <point x="53" y="703" type="line" smooth="yes"/>
      <point x="103" y="694"/>
      <point x="127" y="687"/>
      <point x="127" y="658" type="curve" smooth="yes"/>
    </contour>
  </outline>
</glyph>
<glyph name="v" format="1">
  <advance width="604"/>
  <unicode hex="0076"/>
  <outline>
    <contour>
      <point x="10" y="540" type="line"/>
      <point x="10" y="498" type="line"/>
      <point x="11" y="498" type="line"/>
      <point x="45" y="498"/>
      <point x="70" y="491"/>
      <point x="81" y="463" type="curve"/>
      <point x="171" y="489" type="line"/>
      <point x="171" y="496"/>
      <point x="217" y="498"/>
      <point x="256" y="498" type="curve"/>
      <point x="256" y="498" type="line"/>
      <point x="256" y="540" type="line"/>
    </contour>
    <contour>
      <point x="324" y="0" type="line"/>
      <point x="339" y="37" type="line"/>
      <point x="152" y="540" type="line"/>
      <point x="52" y="540" type="line"/>
      <point x="258" y="0" type="line"/>
    </contour>
    <contour>
      <point x="349" y="0" type="line"/>
      <point x="553" y="540" type="line"/>
      <point x="491" y="540" type="line"/>
      <point x="302" y="32" type="line"/>
      <point x="310" y="0" type="line"/>
    </contour>
    <contour>
      <point x="594" y="540" type="line"/>
      <point x="388" y="540" type="line"/>
      <point x="388" y="498" type="line"/>
      <point x="388" y="498" type="line"/>
      <point x="427" y="498"/>
      <point x="468" y="489"/>
      <point x="468" y="477" type="curve"/>
      <point x="519" y="451" type="line"/>
      <point x="533" y="488"/>
      <point x="562" y="498"/>
      <point x="593" y="498" type="curve"/>
      <point x="594" y="498" type="line"/>
    </contour>
  </outline>
</glyph>
<glyph name="y" format="1">
  <advance width="613"/>
  <unicode hex="0079"/>
  <outline>
    <contour>
      <point x="334" y="9" type="line"/>
      <point x="349" y="56" type="line"/>
      <point x="160" y="528" type="line"/>
      <point x="59" y="524" type="line"/>
      <point x="286" y="-22" type="line"/>
    </contour>
    <contour>
      <point x="356" y="19" type="curve" smooth="yes"/>
      <point x="559" y="524" type="line"/>
      <point x="495" y="528" type="line"/>
      <point x="316" y="74" type="line"/>
      <point x="316" y="73"/>
      <point x="303" y="51"/>
      <point x="302" y="46" type="curve" smooth="yes"/>
      <point x="237" y="-126"/>
      <point x="183" y="-145"/>
      <point x="54" y="-143" type="curve"/>
      <point x="54" y="-232" type="line"/>
      <point x="219" y="-234"/>
      <point x="284" y="-158"/>
    </contour>
    <contour>
      <point x="10" y="540" type="line"/>
      <point x="10" y="498" type="line"/>
      <point x="11" y="498" type="line"/>
      <point x="48" y="498"/>
      <point x="72" y="492"/>
      <point x="84" y="463" type="curve"/>
      <point x="176" y="489" type="line"/>
      <point x="176" y="496"/>
      <point x="221" y="498"/>
      <point x="260" y="498" type="curve"/>
      <point x="260" y="498" type="line"/>
      <point x="260" y="540" type="line"/>
    </contour>
    <contour>
      <point x="604" y="540" type="line"/>
      <point x="394" y="540" type="line"/>
      <point x="394" y="498" type="line"/>
      <point x="395" y="498" type="line"/>
      <point x="434" y="498"/>
      <point x="475" y="489"/>
      <point x="475" y="475" type="curve"/>
      <point x="530" y="451" type="line"/>
      <point x="544" y="488"/>
      <point x="572" y="498"/>
      <point x="603" y="498" type="curve"/>
      <point x="604" y="498" type="line"/>
    </contour>
  </outline>
</glyph>
<glyph name="C.alt" format="1">
  <advance width="748"/>
  <outline>
    <contour>
      <point x="50" y="355" type="curve" smooth="yes"/>
      <point x="50" y="138"/>
      <point x="203" y="-10"/>
      <point x="409" y="-10" type="curve" smooth="yes"/>
      <point x="571" y="-10"/>
      <point x="684" y="86"/>
      <point x="717" y="223" type="curve"/>
      <point x="652" y="244" type="line"/>
      <point x="625" y="136"/>
      <point x="542" y="54"/>
      <point x="416" y="54" type="curve" smooth="yes"/>
      <point x="264" y="54"/>
      <point x="163" y="173"/>
      <point x="163" y="355" type="curve" smooth="yes"/>
      <point x="163" y="539"/>
      <point x="264" y="660"/>
      <point x="421" y="660" type="curve" smooth="yes"/>
      <point x="523" y="660"/>
      <point x="599" y="611"/>
      <point x="627" y="552" type="curve"/>
      <point x="634" y="590"/>
      <point x="612" y="613"/>
      <point x="585" y="612" type="curve"/>
      <point x="585" y="503" type="line"/>
      <point x="692" y="503" type="line"/>
      <point x="692" y="607" type="line"/>
      <point x="661" y="660"/>
      <point x="560" y="720"/>
      <point x="420" y="720" type="curve" smooth="yes"/>
      <point x="204" y="720"/>
      <point x="50" y="569"/>
    </contour>
  </outline>
</glyph>
<glyph name="C.srf" format="1">
  <advance width="778"/>
  <outline>
    <contour>
      <point x="411" y="663" type="curve" smooth="yes"/>
      <point x="531" y="663"/>
      <point x="607" y="596"/>
      <point x="639" y="492" type="curve"/>
      <point x="715" y="492" type="line"/>
      <point x="715" y="710" type="line"/>
      <point x="660" y="710" type="line"/>
      <point x="646" y="549" type="line"/>
      <point x="649" y="545"/>
      <point x="660" y="560"/>
      <point x="670" y="553" type="curve"/>
      <point x="634" y="652"/>
      <point x="534" y="720"/>
      <point x="408" y="720" type="curve" smooth="yes"/>
      <point x="208" y="720"/>
      <point x="50" y="569"/>
      <point x="50" y="355" type="curve" smooth="yes"/>
      <point x="50" y="138"/>
      <point x="204" y="-10"/>
      <point x="417" y="-10" type="curve" smooth="yes"/>
      <point x="581" y="-10"/>
      <point x="695" y="89"/>
      <point x="729" y="231" type="curve"/>
      <point x="673" y="250" type="line"/>
      <point x="643" y="132"/>
      <point x="556" y="47"/>
      <point x="426" y="47" type="curve" smooth="yes"/>
      <point x="265" y="47"/>
      <point x="164" y="169"/>
      <point x="164" y="355" type="curve" smooth="yes"/>
      <point x="164" y="541"/>
      <point x="269" y="663"/>
    </contour>
  </outline>
</glyph>
<glyph name="J.alt" format="1">
  <advance width="621"/>
  <outline>
    <contour>
      <point x="478" y="630" type="line"/>
      <point x="478" y="659"/>
      <point x="514" y="666"/>
      <point x="560" y="666" type="curve" smooth="yes"/>
      <point x="569" y="666" type="line"/>
      <point x="569" y="710" type="line"/>
      <point x="270" y="710" type="line"/>
      <point x="270" y="666" type="line"/>
      <point x="288" y="666" type="line" smooth="yes"/>
      <point x="336" y="666"/>
      <point x="372" y="659"/>
      <point x="372" y="630" type="curve"/>
    </contour>
    <contour>
      <point x="235" y="45" type="curve"/>
      <point x="175" y="45"/>
      <point x="133" y="68"/>
      <point x="115" y="100" type="curve"/>
      <point x="84" y="140"/>
      <point x="90" y="73"/>
      <point x="137" y="60" type="curve"/>
      <point x="137" y="168" type="line"/>
      <point x="34" y="168" type="line"/>
      <point x="34" y="63" type="line"/>
      <point x="70" y="24"/>
      <point x="146" y="-10"/>
      <point x="236" y="-10" type="curve"/>
      <point x="385" y="-10"/>
      <point x="478" y="58"/>
      <point x="478" y="246" type="curve" smooth="yes"/>
      <point x="478" y="710" type="line"/>
      <point x="372" y="710" type="line"/>
      <point x="372" y="238" type="line" smooth="yes"/>
      <point x="372" y="88"/>
      <point x="324" y="45"/>
    </contour>
  </outline>
</glyph>
<glyph name="Q.alt5" format="1">
  <advance width="807"/>
  <outline>
    <contour>
      <point x="403" y="-10" type="curve" smooth="yes"/>
      <point x="603" y="-10"/>
      <point x="757" y="139"/>
      <point x="757" y="355" type="curve" smooth="yes"/>
      <point x="757" y="572"/>
      <point x="603" y="720"/>
      <point x="403" y="720" type="curve" smooth="yes"/>
      <point x="204" y="720"/>
      <point x="50" y="572"/>
      <point x="50" y="355" type="curve" smooth="yes"/>
      <point x="50" y="139"/>
      <point x="204" y="-10"/>
    </contour>
    <contour>
      <point x="403" y="45" type="curve" smooth="yes"/>
      <point x="263" y="45"/>
      <point x="163" y="165"/>
      <point x="163" y="355" type="curve" smooth="yes"/>
      <point x="163" y="545"/>
      <point x="263" y="665"/>
      <point x="403" y="665" type="curve" smooth="yes"/>
      <point x="544" y="665"/>
      <point x="645" y="545"/>
      <point x="645" y="355" type="curve" smooth="yes"/>
      <point x="645" y="165"/>
      <point x="544" y="45"/>
    </contour>
    <contour>
      <point x="360" y="15" type="line"/>
      <point x="447" y="-104"/>
      <point x="554" y="-161"/>
      <point x="732" y="-194" type="curve"/>
      <point x="760" y="-91" type="line"/>
      <point x="614" y="-82"/>
      <point x="485" y="-62"/>
      <point x="408" y="35" type="curve"/>
    </contour>
  </outline>
</glyph>
<glyph name="a.alt" format="1">
  <advance width="577"/>
  <outline>
    <contour>
      <point x="404" y="316" type="line"/>
      <point x="165" y="301"/>
      <point x="45" y="238"/>
      <point x="45" y="129" type="curve" smooth="yes"/>
      <point x="45" y="40"/>
      <point x="119" y="-11"/>
      <point x="214" y="-11" type="curve" smooth="yes"/>
      <point x="305" y="-11"/>
      <point x="367" y="39"/>
      <point x="397" y="107" type="curve"/>
      <point x="430" y="156"/>
      <point x="389" y="143"/>
      <point x="380" y="140" type="curve"/>
      <point x="358" y="91"/>
      <point x="308" y="45"/>
      <point x="245" y="45" type="curve" smooth="yes"/>
      <point x="186" y="45"/>
      <point x="150" y="76"/>
      <point x="150" y="130" type="curve" smooth="yes"/>
      <point x="150" y="205"/>
      <point x="221" y="254"/>
      <point x="401" y="267" type="curve"/>
    </contour>
    <contour>
      <point x="274" y="493" type="curve" smooth="yes"/>
      <point x="334" y="493"/>
      <point x="374" y="466"/>
      <point x="374" y="382" type="curve" smooth="yes"/>
      <point x="374" y="107" type="line"/>
      <point x="383" y="104" type="line"/>
      <point x="383" y="0" type="line"/>
      <point x="554" y="0" type="line"/>
      <point x="554" y="47" type="line"/>
      <point x="552" y="47" type="line" smooth="yes"/>
      <point x="510" y="47"/>
      <point x="472" y="53"/>
      <point x="472" y="83" type="curve" smooth="yes"/>
      <point x="472" y="389" type="line" smooth="yes"/>
      <point x="472" y="510"/>
      <point x="372" y="550"/>
      <point x="275" y="550" type="curve" smooth="yes"/>
      <point x="164" y="550"/>
      <point x="76" y="495"/>
      <point x="65" y="391" type="curve"/>
      <point x="164" y="391" type="line"/>
      <point x="172" y="464"/>
      <point x="212" y="493"/>
    </contour>
  </outline>
</glyph>
<glyph name="c.alt" format="1">
  <advance width="615"/>
  <outline>
    <contour>
      <point x="571" y="343" type="line"/>
      <point x="551" y="462"/>
      <point x="456" y="540"/>
      <point x="322" y="540" type="curve" smooth="yes"/>
      <point x="175" y="540"/>
      <point x="51" y="425"/>
      <point x="51" y="264" type="curve" smooth="yes"/>
      <point x="51" y="104"/>
      <point x="174" y="-12"/>
      <point x="331" y="-12" type="curve" smooth="yes"/>
      <point x="444" y="-12"/>
      <point x="529" y="46"/>
      <point x="564" y="140" type="curve"/>
      <point x="502" y="145" type="line"/>
      <point x="471" y="83"/>
      <point x="418" y="42"/>
      <point x="334" y="42" type="curve" smooth="yes"/>
      <point x="220" y="42"/>
      <point x="145" y="131"/>
      <point x="145" y="264" type="curve" smooth="yes"/>
      <point x="145" y="398"/>
      <point x="220" y="486"/>
      <point x="322" y="486" type="curve" smooth="yes"/>
      <point x="409" y="486"/>
      <point x="457" y="424"/>
      <point x="472" y="343" type="curve"/>
    </contour>
  </outline>
</glyph>
<glyph name="five.old" format="1">
  <advance width="604"/>
  <outline>
    <contour>
      <point x="164" y="225" type="line"/>
      <point x="215" y="477" type="line"/>
      <point x="185" y="448" type="line"/>
      <point x="519" y="448" type="line"/>
      <point x="519" y="528" type="line"/>
      <point x="157" y="528" type="line"/>
      <point x="96" y="225" type="line"/>
      <point x="96" y="188" type="line"/>
      <point x="221" y="188" type="line" smooth="yes"/>
      <point x="381" y="188"/>
      <point x="458" y="141"/>
      <point x="458" y="26" type="curve" smooth="yes"/>
      <point x="458" y="-83"/>
      <point x="393" y="-132"/>
      <point x="313" y="-132" type="curve" smooth="yes"/>
      <point x="225" y="-132"/>
      <point x="166" y="-88"/>
      <point x="154" y="25" type="curve"/>
      <point x="46" y="25" type="line"/>
      <point x="62" y="-121"/>
      <point x="167" y="-193"/>
      <point x="313" y="-193" type="curve" smooth="yes"/>
      <point x="448" y="-193"/>
      <point x="563" y="-117"/>
      <point x="563" y="27" type="curve" smooth="yes"/>
      <point x="563" y="165"/>
      <point x="458" y="249"/>
      <point x="243" y="249" type="curve" smooth="yes"/>
      <point x="130" y="249" type="line"/>
    </contour>
  </outline>
</glyph>
<glyph name="four.oldalt" format="1">
  <advance width="619"/>
  <outline>
    <contour>
      <point x="255" y="-131" type="line"/>
      <point x="255" y="-187" type="line"/>
      <point x="592" y="-187" type="line"/>
      <point x="592" y="-131" type="line"/>
      <point x="474" y="-131" type="line"/>
      <point x="474" y="-131" type="line"/>
      <point x="373" y="-131" type="line"/>
      <point x="373" y="-131" type="line"/>
    </contour>
    <contour>
      <point x="373" y="337" type="line"/>
      <point x="373" y="-187" type="line"/>
      <point x="474" y="-187" type="line"/>
      <point x="474" y="337" type="line"/>
    </contour>
    <contour>
      <point x="34" y="3" type="line"/>
      <point x="601" y="3" type="line"/>
      <point x="601" y="58" type="line"/>
      <point x="75" y="58" type="line"/>
      <point x="77" y="24" type="line"/>
      <point x="476" y="534" type="line"/>
      <point x="365" y="534" type="line"/>
      <point x="34" y="63" type="line"/>
    </contour>
  </outline>
</glyph>
<glyph name="g.alt" format="1">
  <advance width="663"/>
  <outline>
    <contour>
      <point x="154" y="269" type="curve" smooth="yes"/>
      <point x="154" y="406"/>
      <point x="208" y="495"/>
      <point x="308" y="495" type="curve" smooth="yes"/>
      <point x="390" y="495"/>
      <point x="452" y="451"/>
      <point x="496" y="353" type="curve"/>
      <point x="533" y="371" type="line"/>
      <point x="470" y="498"/>
      <point x="407" y="550"/>
      <point x="300" y="550" type="curve" smooth="yes"/>
      <point x="150" y="550"/>
      <point x="49" y="436"/>
      <point x="49" y="269" type="curve" smooth="yes"/>
      <point x="49" y="104"/>
      <point x="147" y="-7"/>
      <point x="294" y="-7" type="curve" smooth="yes"/>
      <point x="401" y="-7"/>
      <point x="461" y="52"/>
      <point x="531" y="179" type="curve"/>
      <point x="530" y="179"/>
      <point x="496" y="199"/>
      <point x="496" y="199" type="curve"/>
      <point x="451" y="101"/>
      <point x="389" y="48"/>
      <point x="305" y="48" type="curve" smooth="yes"/>
      <point x="208" y="48"/>
      <point x="154" y="135"/>
    </contour>
    <contour>
      <point x="572" y="29" type="curve" smooth="yes"/>
      <point x="572" y="544" type="line"/>
      <point x="515" y="544" type="line"/>
      <point x="481" y="442" type="line"/>
      <point x="472" y="431" type="line"/>
      <point x="472" y="25" type="line" smooth="yes"/>
      <point x="472" y="-121"/>
      <point x="403" y="-183"/>
      <point x="301" y="-183" type="curve" smooth="yes"/>
      <point x="218" y="-183"/>
      <point x="163" y="-148"/>
      <point x="137" y="-103" type="curve"/>
      <point x="129" y="-147"/>
      <point x="147" y="-179"/>
      <point x="174" y="-181" type="curve"/>
      <point x="174" y="-57" type="line"/>
      <point x="73" y="-57" type="line"/>
      <point x="73" y="-147" type="line"/>
      <point x="105" y="-193"/>
      <point x="198" y="-235"/>
      <point x="302" y="-235" type="curve" smooth="yes"/>
      <point x="467" y="-235"/>
      <point x="572" y="-142"/>
    </contour>
  </outline>
</glyph>
